<mxfile host="app.diagrams.net" agent="Mozilla/5.0 (Windows NT 10.0; Win64; x64) AppleWebKit/537.36 (KHTML, like Gecko) Chrome/131.0.0.0 Safari/537.36 Edg/131.0.0.0" version="26.0.10">
  <diagram id="C5RBs43oDa-KdzZeNtuy" name="Page-1">
    <mxGraphModel dx="872" dy="469" grid="1" gridSize="10" guides="1" tooltips="1" connect="1" arrows="1" fold="1" page="1" pageScale="1" pageWidth="827" pageHeight="1169" math="0" shadow="0">
      <root>
        <mxCell id="WIyWlLk6GJQsqaUBKTNV-0" />
        <mxCell id="WIyWlLk6GJQsqaUBKTNV-1" parent="WIyWlLk6GJQsqaUBKTNV-0" />
        <mxCell id="0GD-vdV0sDoHkMgnQdCW-7" style="edgeStyle=orthogonalEdgeStyle;rounded=0;orthogonalLoop=1;jettySize=auto;html=1;entryX=1;entryY=0.5;entryDx=0;entryDy=0;" edge="1" parent="WIyWlLk6GJQsqaUBKTNV-1" source="Lmv_K0fxfyAc_HqNrKYY-0" target="Lmv_K0fxfyAc_HqNrKYY-1">
          <mxGeometry relative="1" as="geometry" />
        </mxCell>
        <mxCell id="0GD-vdV0sDoHkMgnQdCW-8" style="edgeStyle=orthogonalEdgeStyle;rounded=0;orthogonalLoop=1;jettySize=auto;html=1;entryX=0;entryY=0.5;entryDx=0;entryDy=0;" edge="1" parent="WIyWlLk6GJQsqaUBKTNV-1" source="Lmv_K0fxfyAc_HqNrKYY-0" target="Lmv_K0fxfyAc_HqNrKYY-4">
          <mxGeometry relative="1" as="geometry" />
        </mxCell>
        <mxCell id="0GD-vdV0sDoHkMgnQdCW-9" style="edgeStyle=orthogonalEdgeStyle;rounded=0;orthogonalLoop=1;jettySize=auto;html=1;entryX=0.5;entryY=1;entryDx=0;entryDy=0;" edge="1" parent="WIyWlLk6GJQsqaUBKTNV-1" source="Lmv_K0fxfyAc_HqNrKYY-0" target="Lmv_K0fxfyAc_HqNrKYY-3">
          <mxGeometry relative="1" as="geometry" />
        </mxCell>
        <mxCell id="0GD-vdV0sDoHkMgnQdCW-10" style="edgeStyle=orthogonalEdgeStyle;rounded=0;orthogonalLoop=1;jettySize=auto;html=1;" edge="1" parent="WIyWlLk6GJQsqaUBKTNV-1" source="Lmv_K0fxfyAc_HqNrKYY-0" target="Lmv_K0fxfyAc_HqNrKYY-5">
          <mxGeometry relative="1" as="geometry" />
        </mxCell>
        <mxCell id="Lmv_K0fxfyAc_HqNrKYY-0" value="&lt;font style=&quot;font-size: 19px;&quot;&gt;Objectives and Key Features&lt;/font&gt;" style="ellipse;whiteSpace=wrap;html=1;aspect=fixed;strokeColor=#000066;strokeWidth=3;" parent="WIyWlLk6GJQsqaUBKTNV-1" vertex="1">
          <mxGeometry x="360" y="200" width="160" height="160" as="geometry" />
        </mxCell>
        <mxCell id="0GD-vdV0sDoHkMgnQdCW-6" style="edgeStyle=orthogonalEdgeStyle;rounded=0;orthogonalLoop=1;jettySize=auto;html=1;entryX=0.454;entryY=1.027;entryDx=0;entryDy=0;entryPerimeter=0;" edge="1" parent="WIyWlLk6GJQsqaUBKTNV-1" source="Lmv_K0fxfyAc_HqNrKYY-1" target="0GD-vdV0sDoHkMgnQdCW-1">
          <mxGeometry relative="1" as="geometry">
            <mxPoint x="220" y="170" as="targetPoint" />
            <Array as="points">
              <mxPoint x="219" y="210" />
              <mxPoint x="219" y="210" />
            </Array>
          </mxGeometry>
        </mxCell>
        <mxCell id="Lmv_K0fxfyAc_HqNrKYY-1" value="&lt;div&gt;&lt;br&gt;&lt;/div&gt;&lt;div&gt;&lt;br&gt;&lt;/div&gt;&lt;div&gt;&lt;span style=&quot;background-color: transparent; color: light-dark(rgb(0, 0, 0), rgb(255, 255, 255));&quot;&gt;To train a model to accurately classify rice diseases using image processing.&lt;/span&gt;&lt;/div&gt;&lt;div&gt;&lt;br&gt;&lt;/div&gt;&lt;div&gt;&lt;br&gt;&lt;/div&gt;" style="ellipse;whiteSpace=wrap;html=1;fillColor=#dae8fc;strokeColor=#6c8ebf;gradientColor=#7ea6e0;" parent="WIyWlLk6GJQsqaUBKTNV-1" vertex="1">
          <mxGeometry x="120" y="230" width="200" height="100" as="geometry" />
        </mxCell>
        <mxCell id="0GD-vdV0sDoHkMgnQdCW-11" style="edgeStyle=orthogonalEdgeStyle;rounded=0;orthogonalLoop=1;jettySize=auto;html=1;entryX=0;entryY=0.5;entryDx=0;entryDy=0;" edge="1" parent="WIyWlLk6GJQsqaUBKTNV-1" source="Lmv_K0fxfyAc_HqNrKYY-3" target="0GD-vdV0sDoHkMgnQdCW-2">
          <mxGeometry relative="1" as="geometry" />
        </mxCell>
        <mxCell id="Lmv_K0fxfyAc_HqNrKYY-3" value="&lt;div&gt;&lt;br&gt;&lt;/div&gt;&lt;div&gt;&lt;span style=&quot;background-color: transparent; color: light-dark(rgb(0, 0, 0), rgb(255, 255, 255));&quot;&gt;To Conduct extensive testing with real-world datasets.&lt;/span&gt;&lt;/div&gt;&lt;div&gt;&lt;br&gt;&lt;/div&gt;" style="ellipse;whiteSpace=wrap;html=1;fillColor=#dae8fc;strokeColor=#6c8ebf;gradientColor=#7ea6e0;" parent="WIyWlLk6GJQsqaUBKTNV-1" vertex="1">
          <mxGeometry x="355" y="77.5" width="170" height="90" as="geometry" />
        </mxCell>
        <mxCell id="0GD-vdV0sDoHkMgnQdCW-13" style="edgeStyle=orthogonalEdgeStyle;rounded=0;orthogonalLoop=1;jettySize=auto;html=1;entryX=0.5;entryY=0;entryDx=0;entryDy=0;" edge="1" parent="WIyWlLk6GJQsqaUBKTNV-1" source="Lmv_K0fxfyAc_HqNrKYY-4" target="0GD-vdV0sDoHkMgnQdCW-3">
          <mxGeometry relative="1" as="geometry" />
        </mxCell>
        <mxCell id="Lmv_K0fxfyAc_HqNrKYY-4" value="&lt;div&gt;&lt;br&gt;&lt;/div&gt;&lt;div&gt;&lt;span style=&quot;background-color: transparent; color: light-dark(rgb(0, 0, 0), rgb(255, 255, 255));&quot;&gt;To ensure the application is accessible across devices.&lt;/span&gt;&lt;/div&gt;&lt;div&gt;&lt;br&gt;&lt;/div&gt;" style="ellipse;whiteSpace=wrap;html=1;fillColor=#dae8fc;strokeColor=#6c8ebf;gradientColor=#7ea6e0;" parent="WIyWlLk6GJQsqaUBKTNV-1" vertex="1">
          <mxGeometry x="560" y="230" width="170" height="100" as="geometry" />
        </mxCell>
        <mxCell id="0GD-vdV0sDoHkMgnQdCW-12" style="edgeStyle=orthogonalEdgeStyle;rounded=0;orthogonalLoop=1;jettySize=auto;html=1;entryX=1;entryY=0.5;entryDx=0;entryDy=0;" edge="1" parent="WIyWlLk6GJQsqaUBKTNV-1" source="Lmv_K0fxfyAc_HqNrKYY-5" target="0GD-vdV0sDoHkMgnQdCW-4">
          <mxGeometry relative="1" as="geometry" />
        </mxCell>
        <mxCell id="Lmv_K0fxfyAc_HqNrKYY-5" value="&lt;div&gt;&lt;br&gt;&lt;/div&gt;&lt;div&gt;&lt;br&gt;&lt;/div&gt;&lt;div&gt;To develop an intuitive and simple UI for easy disease detection.&lt;/div&gt;&lt;div&gt;&lt;br&gt;&lt;/div&gt;" style="ellipse;whiteSpace=wrap;html=1;fillColor=#dae8fc;strokeColor=#6c8ebf;gradientColor=#7ea6e0;" parent="WIyWlLk6GJQsqaUBKTNV-1" vertex="1">
          <mxGeometry x="355" y="390" width="170" height="90" as="geometry" />
        </mxCell>
        <mxCell id="0GD-vdV0sDoHkMgnQdCW-1" value="Uses deep learning to analyze uploaded images and classify diseases." style="rounded=1;whiteSpace=wrap;html=1;fillColor=#f8cecc;strokeColor=#b85450;" vertex="1" parent="WIyWlLk6GJQsqaUBKTNV-1">
          <mxGeometry x="160" y="85" width="130" height="75" as="geometry" />
        </mxCell>
        <mxCell id="0GD-vdV0sDoHkMgnQdCW-2" value="Supports multiple users and a growing dataset efficiently." style="rounded=1;whiteSpace=wrap;html=1;fillColor=#f8cecc;strokeColor=#b85450;" vertex="1" parent="WIyWlLk6GJQsqaUBKTNV-1">
          <mxGeometry x="585" y="92.5" width="120" height="60" as="geometry" />
        </mxCell>
        <mxCell id="0GD-vdV0sDoHkMgnQdCW-3" value="&lt;div&gt;&lt;br&gt;&lt;/div&gt;&lt;div&gt;Provides immediate disease identification and treatment suggestions.&lt;/div&gt;&lt;div&gt;&lt;br&gt;&lt;/div&gt;" style="rounded=1;whiteSpace=wrap;html=1;fillColor=#f8cecc;strokeColor=#b85450;" vertex="1" parent="WIyWlLk6GJQsqaUBKTNV-1">
          <mxGeometry x="582.5" y="392.5" width="125" height="85" as="geometry" />
        </mxCell>
        <mxCell id="0GD-vdV0sDoHkMgnQdCW-4" value="&lt;div&gt;&lt;br&gt;&lt;/div&gt;&lt;div&gt;&lt;br&gt;&lt;/div&gt;&lt;div&gt;Displays reports, trends, and historical disease data for better insights. And s&lt;span style=&quot;background-color: transparent;&quot;&gt;tores farmer data and disease history securely.&lt;/span&gt;&lt;/div&gt;&lt;div&gt;&lt;span style=&quot;background-color: transparent; color: light-dark(rgb(0, 0, 0), rgb(255, 255, 255));&quot;&gt;&lt;br&gt;&lt;/span&gt;&lt;/div&gt;&lt;div&gt;&lt;br&gt;&lt;/div&gt;" style="rounded=1;whiteSpace=wrap;html=1;fillColor=#f8cecc;strokeColor=#b85450;" vertex="1" parent="WIyWlLk6GJQsqaUBKTNV-1">
          <mxGeometry x="140" y="383.75" width="150" height="102.5" as="geometry" />
        </mxCell>
      </root>
    </mxGraphModel>
  </diagram>
</mxfile>
